<svg id="visual" viewBox="0 0 1160 950" width="1160" height="950" xmlns="http://www.w3.org/2000/svg" xmlns:xlink="http://www.w3.org/1999/xlink" version="1.1"><rect x="0" y="0" width="1160" height="950" fill="#f0f0f0"></rect><defs><linearGradient id="grad1_0" x1="18.1%" y1="100%" x2="100%" y2="0%"><stop offset="25.57894736842105%" stop-color="#2579e7" stop-opacity="1"></stop><stop offset="74.42105263157895%" stop-color="#2579e7" stop-opacity="1"></stop></linearGradient></defs><defs><linearGradient id="grad1_1" x1="18.1%" y1="100%" x2="100%" y2="0%"><stop offset="25.57894736842105%" stop-color="#2579e7" stop-opacity="1"></stop><stop offset="74.42105263157895%" stop-color="#839eeb" stop-opacity="1"></stop></linearGradient></defs><defs><linearGradient id="grad1_2" x1="18.1%" y1="100%" x2="100%" y2="0%"><stop offset="25.57894736842105%" stop-color="#bdc6ee" stop-opacity="1"></stop><stop offset="74.42105263157895%" stop-color="#839eeb" stop-opacity="1"></stop></linearGradient></defs><defs><linearGradient id="grad1_3" x1="18.1%" y1="100%" x2="100%" y2="0%"><stop offset="25.57894736842105%" stop-color="#bdc6ee" stop-opacity="1"></stop><stop offset="74.42105263157895%" stop-color="#f0f0f0" stop-opacity="1"></stop></linearGradient></defs><defs><linearGradient id="grad2_0" x1="0%" y1="100%" x2="81.9%" y2="0%"><stop offset="25.57894736842105%" stop-color="#2579e7" stop-opacity="1"></stop><stop offset="74.42105263157895%" stop-color="#2579e7" stop-opacity="1"></stop></linearGradient></defs><defs><linearGradient id="grad2_1" x1="0%" y1="100%" x2="81.9%" y2="0%"><stop offset="25.57894736842105%" stop-color="#839eeb" stop-opacity="1"></stop><stop offset="74.42105263157895%" stop-color="#2579e7" stop-opacity="1"></stop></linearGradient></defs><defs><linearGradient id="grad2_2" x1="0%" y1="100%" x2="81.9%" y2="0%"><stop offset="25.57894736842105%" stop-color="#839eeb" stop-opacity="1"></stop><stop offset="74.42105263157895%" stop-color="#bdc6ee" stop-opacity="1"></stop></linearGradient></defs><defs><linearGradient id="grad2_3" x1="0%" y1="100%" x2="81.9%" y2="0%"><stop offset="25.57894736842105%" stop-color="#f0f0f0" stop-opacity="1"></stop><stop offset="74.42105263157895%" stop-color="#bdc6ee" stop-opacity="1"></stop></linearGradient></defs><g transform="translate(1160, 950)"><path d="M-337.4 0C-328.3 -41.8 -319.2 -83.5 -304.9 -126.3C-290.6 -169 -271.1 -212.8 -238.5 -238.5C-205.9 -264.3 -160.2 -272 -118.2 -285.5C-76.3 -298.9 -38.2 -318.2 0 -337.4L0 0Z" fill="#d7dbef"></path><path d="M-253 0C-246.2 -31.3 -239.4 -62.6 -228.7 -94.7C-218 -126.8 -203.4 -159.6 -178.9 -178.9C-154.5 -198.2 -120.1 -204 -88.7 -214.1C-57.2 -224.2 -28.6 -238.6 0 -253L0 0Z" fill="#a1b2ed"></path><path d="M-168.7 0C-164.1 -20.9 -159.6 -41.8 -152.4 -63.1C-145.3 -84.5 -135.6 -106.4 -119.3 -119.3C-103 -132.1 -80.1 -136 -59.1 -142.7C-38.2 -149.5 -19.1 -159.1 0 -168.7L0 0Z" fill="#5f8be9"></path><path d="M-84.3 0C-82.1 -10.4 -79.8 -20.9 -76.2 -31.6C-72.7 -42.3 -67.8 -53.2 -59.6 -59.6C-51.5 -66.1 -40 -68 -29.6 -71.4C-19.1 -74.7 -9.5 -79.5 0 -84.3L0 0Z" fill="#2579e7"></path></g><g transform="translate(0, 0)"><path d="M337.4 0C328.3 40.9 319.2 81.8 305.8 126.7C292.4 171.6 274.5 220.5 238.5 238.5C202.6 256.6 148.4 243.7 105.6 255C62.8 266.3 31.4 301.8 0 337.4L0 0Z" fill="#d7dbef"></path><path d="M253 0C246.2 30.7 239.4 61.3 229.4 95C219.3 128.7 205.9 165.4 178.9 178.9C151.9 192.4 111.3 182.8 79.2 191.2C47.1 199.7 23.6 226.4 0 253L0 0Z" fill="#a1b2ed"></path><path d="M168.7 0C164.2 20.4 159.6 40.9 152.9 63.3C146.2 85.8 137.3 110.3 119.3 119.3C101.3 128.3 74.2 121.8 52.8 127.5C31.4 133.2 15.7 150.9 0 168.7L0 0Z" fill="#5f8be9"></path><path d="M84.3 0C82.1 10.2 79.8 20.4 76.5 31.7C73.1 42.9 68.6 55.1 59.6 59.6C50.6 64.1 37.1 60.9 26.4 63.7C15.7 66.6 7.9 75.5 0 84.3L0 0Z" fill="#2579e7"></path></g></svg>